<svg id="visual" viewBox="0 0 3000 100" width="3000" height="100" xmlns="http://www.w3.org/2000/svg" xmlns:xlink="http://www.w3.org/1999/xlink" version="1.1"><path d="M0 45L38.5 42C77 39 154 33 231 31.5C308 30 385 33 461.8 31.8C538.7 30.7 615.3 25.3 692.2 27.8C769 30.3 846 40.7 923 43C1000 45.3 1077 39.7 1154 38C1231 36.3 1308 38.7 1384.8 40.2C1461.7 41.7 1538.3 42.3 1615.2 44.5C1692 46.7 1769 50.3 1846 47.2C1923 44 2000 34 2077 31.2C2154 28.3 2231 32.7 2307.8 31.8C2384.7 31 2461.3 25 2538.2 26.8C2615 28.7 2692 38.3 2769 40.8C2846 43.3 2923 38.7 2961.5 36.3L3000 34L3000 101L2961.5 101C2923 101 2846 101 2769 101C2692 101 2615 101 2538.2 101C2461.3 101 2384.7 101 2307.8 101C2231 101 2154 101 2077 101C2000 101 1923 101 1846 101C1769 101 1692 101 1615.2 101C1538.3 101 1461.7 101 1384.8 101C1308 101 1231 101 1154 101C1077 101 1000 101 923 101C846 101 769 101 692.2 101C615.3 101 538.7 101 461.8 101C385 101 308 101 231 101C154 101 77 101 38.5 101L0 101Z" fill="#3a0400"></path><path d="M0 47L38.5 47C77 47 154 47 231 49.5C308 52 385 57 461.8 57.7C538.7 58.3 615.3 54.7 692.2 52.3C769 50 846 49 923 49.3C1000 49.7 1077 51.3 1154 50.2C1231 49 1308 45 1384.8 45.8C1461.7 46.7 1538.3 52.3 1615.2 57.3C1692 62.3 1769 66.7 1846 68C1923 69.3 2000 67.7 2077 65.2C2154 62.7 2231 59.3 2307.8 57.3C2384.7 55.3 2461.3 54.7 2538.2 56.8C2615 59 2692 64 2769 65C2846 66 2923 63 2961.5 61.5L3000 60L3000 101L2961.5 101C2923 101 2846 101 2769 101C2692 101 2615 101 2538.2 101C2461.3 101 2384.7 101 2307.8 101C2231 101 2154 101 2077 101C2000 101 1923 101 1846 101C1769 101 1692 101 1615.2 101C1538.3 101 1461.7 101 1384.8 101C1308 101 1231 101 1154 101C1077 101 1000 101 923 101C846 101 769 101 692.2 101C615.3 101 538.7 101 461.8 101C385 101 308 101 231 101C154 101 77 101 38.5 101L0 101Z" fill="#610405"></path><path d="M0 74L38.5 73.3C77 72.7 154 71.3 231 72.5C308 73.7 385 77.3 461.8 78.7C538.7 80 615.3 79 692.2 79.7C769 80.3 846 82.7 923 81.7C1000 80.7 1077 76.3 1154 74.2C1231 72 1308 72 1384.8 70.5C1461.7 69 1538.3 66 1615.2 65C1692 64 1769 65 1846 66.3C1923 67.7 2000 69.3 2077 70.3C2154 71.3 2231 71.7 2307.8 71.7C2384.7 71.7 2461.3 71.3 2538.2 69.8C2615 68.3 2692 65.7 2769 67.7C2846 69.7 2923 76.3 2961.5 79.7L3000 83L3000 101L2961.5 101C2923 101 2846 101 2769 101C2692 101 2615 101 2538.2 101C2461.3 101 2384.7 101 2307.8 101C2231 101 2154 101 2077 101C2000 101 1923 101 1846 101C1769 101 1692 101 1615.2 101C1538.3 101 1461.7 101 1384.8 101C1308 101 1231 101 1154 101C1077 101 1000 101 923 101C846 101 769 101 692.2 101C615.3 101 538.7 101 461.8 101C385 101 308 101 231 101C154 101 77 101 38.5 101L0 101Z" fill="#890900"></path></svg>