<svg id="visual" viewBox="0 0 1000 50" width="1000" height="50" xmlns="http://www.w3.org/2000/svg" xmlns:xlink="http://www.w3.org/1999/xlink" version="1.1"><path d="M0 11L23.8 11.7C47.7 12.3 95.3 13.7 143 14.7C190.7 15.7 238.3 16.3 286 16C333.7 15.7 381.3 14.3 428.8 13.3C476.3 12.3 523.7 11.7 571.2 12.2C618.7 12.7 666.3 14.3 714 15.7C761.7 17 809.3 18 857 19.2C904.7 20.3 952.3 21.7 976.2 22.3L1000 23L1000 51L976.2 51C952.3 51 904.7 51 857 51C809.3 51 761.7 51 714 51C666.3 51 618.7 51 571.2 51C523.7 51 476.3 51 428.8 51C381.3 51 333.7 51 286 51C238.3 51 190.7 51 143 51C95.3 51 47.7 51 23.8 51L0 51Z" fill="#3a0400"></path><path d="M0 21L23.8 20.5C47.7 20 95.3 19 143 19.2C190.7 19.3 238.3 20.7 286 21.2C333.7 21.7 381.3 21.3 428.8 20.7C476.3 20 523.7 19 571.2 20.3C618.7 21.7 666.3 25.3 714 27.3C761.7 29.3 809.3 29.7 857 29.7C904.7 29.7 952.3 29.3 976.2 29.2L1000 29L1000 51L976.2 51C952.3 51 904.7 51 857 51C809.3 51 761.7 51 714 51C666.3 51 618.7 51 571.2 51C523.7 51 476.3 51 428.8 51C381.3 51 333.7 51 286 51C238.3 51 190.7 51 143 51C95.3 51 47.7 51 23.8 51L0 51Z" fill="#540405"></path><path d="M0 28L23.8 28C47.7 28 95.3 28 143 27.7C190.7 27.3 238.3 26.7 286 28C333.7 29.3 381.3 32.7 428.8 33C476.3 33.3 523.7 30.7 571.2 29.8C618.7 29 666.3 30 714 29.8C761.7 29.7 809.3 28.3 857 28.2C904.7 28 952.3 29 976.2 29.5L1000 30L1000 51L976.2 51C952.3 51 904.7 51 857 51C809.3 51 761.7 51 714 51C666.3 51 618.7 51 571.2 51C523.7 51 476.3 51 428.8 51C381.3 51 333.7 51 286 51C238.3 51 190.7 51 143 51C95.3 51 47.7 51 23.8 51L0 51Z" fill="#6e0505"></path><path d="M0 36L23.8 36.8C47.7 37.7 95.3 39.3 143 40C190.7 40.7 238.3 40.3 286 39.3C333.7 38.3 381.3 36.7 428.8 37C476.3 37.3 523.7 39.7 571.2 40.2C618.7 40.7 666.3 39.3 714 38C761.7 36.7 809.3 35.3 857 35.8C904.7 36.3 952.3 38.7 976.2 39.8L1000 41L1000 51L976.2 51C952.3 51 904.7 51 857 51C809.3 51 761.7 51 714 51C666.3 51 618.7 51 571.2 51C523.7 51 476.3 51 428.8 51C381.3 51 333.7 51 286 51C238.3 51 190.7 51 143 51C95.3 51 47.7 51 23.8 51L0 51Z" fill="#890900"></path></svg>