<svg id="visual" viewBox="0 0 3000 100" width="3000" height="100" xmlns="http://www.w3.org/2000/svg" xmlns:xlink="http://www.w3.org/1999/xlink" version="1.1"><path d="M0 68L38.5 63.8C77 59.7 154 51.3 231 52.7C308 54 385 65 461.8 65C538.7 65 615.3 54 692.2 53.2C769 52.3 846 61.7 923 63.7C1000 65.7 1077 60.3 1154 59.7C1231 59 1308 63 1384.8 64.5C1461.7 66 1538.3 65 1615.2 66.5C1692 68 1769 72 1846 74.3C1923 76.7 2000 77.3 2077 74.2C2154 71 2231 64 2307.8 62.3C2384.7 60.7 2461.3 64.3 2538.2 62C2615 59.7 2692 51.3 2769 52.5C2846 53.7 2923 64.3 2961.5 69.7L3000 75L3000 0L2961.5 0C2923 0 2846 0 2769 0C2692 0 2615 0 2538.2 0C2461.3 0 2384.7 0 2307.8 0C2231 0 2154 0 2077 0C2000 0 1923 0 1846 0C1769 0 1692 0 1615.2 0C1538.3 0 1461.7 0 1384.8 0C1308 0 1231 0 1154 0C1077 0 1000 0 923 0C846 0 769 0 692.2 0C615.3 0 538.7 0 461.8 0C385 0 308 0 231 0C154 0 77 0 38.5 0L0 0Z" fill="#3a0400"></path><path d="M0 31L38.5 35.5C77 40 154 49 231 51.8C308 54.7 385 51.3 461.8 48.5C538.7 45.7 615.3 43.3 692.2 43.2C769 43 846 45 923 43.5C1000 42 1077 37 1154 38.7C1231 40.3 1308 48.7 1384.8 48.2C1461.7 47.7 1538.3 38.3 1615.2 36.7C1692 35 1769 41 1846 45.2C1923 49.3 2000 51.7 2077 53C2154 54.3 2231 54.7 2307.8 52.5C2384.7 50.3 2461.3 45.7 2538.2 44C2615 42.3 2692 43.7 2769 46.3C2846 49 2923 53 2961.5 55L3000 57L3000 0L2961.5 0C2923 0 2846 0 2769 0C2692 0 2615 0 2538.2 0C2461.3 0 2384.7 0 2307.8 0C2231 0 2154 0 2077 0C2000 0 1923 0 1846 0C1769 0 1692 0 1615.2 0C1538.3 0 1461.7 0 1384.8 0C1308 0 1231 0 1154 0C1077 0 1000 0 923 0C846 0 769 0 692.2 0C615.3 0 538.7 0 461.8 0C385 0 308 0 231 0C154 0 77 0 38.5 0L0 0Z" fill="#610405"></path><path d="M0 31L38.5 31.3C77 31.7 154 32.3 231 31.5C308 30.7 385 28.3 461.8 26.5C538.7 24.7 615.3 23.3 692.2 21.3C769 19.3 846 16.7 923 15.3C1000 14 1077 14 1154 15C1231 16 1308 18 1384.8 19.8C1461.7 21.7 1538.3 23.3 1615.2 24C1692 24.7 1769 24.3 1846 25.5C1923 26.7 2000 29.3 2077 28.2C2154 27 2231 22 2307.8 21C2384.7 20 2461.3 23 2538.2 22.2C2615 21.3 2692 16.7 2769 17.8C2846 19 2923 26 2961.5 29.5L3000 33L3000 0L2961.5 0C2923 0 2846 0 2769 0C2692 0 2615 0 2538.2 0C2461.3 0 2384.7 0 2307.8 0C2231 0 2154 0 2077 0C2000 0 1923 0 1846 0C1769 0 1692 0 1615.2 0C1538.3 0 1461.7 0 1384.8 0C1308 0 1231 0 1154 0C1077 0 1000 0 923 0C846 0 769 0 692.2 0C615.3 0 538.7 0 461.8 0C385 0 308 0 231 0C154 0 77 0 38.5 0L0 0Z" fill="#890900"></path></svg>