<svg id="visual" viewBox="0 0 1000 50" width="1000" height="50" xmlns="http://www.w3.org/2000/svg" xmlns:xlink="http://www.w3.org/1999/xlink" version="1.1"><path d="M0 28L23.8 28.2C47.7 28.3 95.3 28.7 143 30.5C190.7 32.3 238.3 35.7 286 35.5C333.7 35.3 381.3 31.7 428.8 31.7C476.3 31.7 523.7 35.3 571.2 35.2C618.7 35 666.3 31 714 29.7C761.7 28.3 809.3 29.7 857 30.5C904.7 31.3 952.3 31.7 976.2 31.8L1000 32L1000 0L976.2 0C952.3 0 904.7 0 857 0C809.3 0 761.7 0 714 0C666.3 0 618.7 0 571.2 0C523.7 0 476.3 0 428.8 0C381.3 0 333.7 0 286 0C238.3 0 190.7 0 143 0C95.3 0 47.7 0 23.8 0L0 0Z" fill="#3a0400"></path><path d="M0 27L23.8 25.3C47.7 23.7 95.3 20.3 143 21C190.7 21.7 238.3 26.3 286 27.2C333.7 28 381.3 25 428.8 24.5C476.3 24 523.7 26 571.2 27C618.7 28 666.3 28 714 26.5C761.7 25 809.3 22 857 21.3C904.7 20.7 952.3 22.3 976.2 23.2L1000 24L1000 0L976.2 0C952.3 0 904.7 0 857 0C809.3 0 761.7 0 714 0C666.3 0 618.7 0 571.2 0C523.7 0 476.3 0 428.8 0C381.3 0 333.7 0 286 0C238.3 0 190.7 0 143 0C95.3 0 47.7 0 23.8 0L0 0Z" fill="#540405"></path><path d="M0 14L23.8 15.3C47.7 16.7 95.3 19.3 143 18.8C190.7 18.3 238.3 14.7 286 14.2C333.7 13.7 381.3 16.3 428.8 17.8C476.3 19.3 523.7 19.7 571.2 20.3C618.7 21 666.3 22 714 21.2C761.7 20.3 809.3 17.7 857 16.8C904.7 16 952.3 17 976.2 17.5L1000 18L1000 0L976.2 0C952.3 0 904.7 0 857 0C809.3 0 761.7 0 714 0C666.3 0 618.7 0 571.2 0C523.7 0 476.3 0 428.8 0C381.3 0 333.7 0 286 0C238.3 0 190.7 0 143 0C95.3 0 47.7 0 23.8 0L0 0Z" fill="#6e0505"></path><path d="M0 7L23.8 7.2C47.7 7.3 95.3 7.7 143 7.3C190.7 7 238.3 6 286 5.7C333.7 5.3 381.3 5.7 428.8 6.7C476.3 7.7 523.7 9.3 571.2 9.8C618.7 10.3 666.3 9.7 714 9.2C761.7 8.7 809.3 8.3 857 9C904.7 9.7 952.3 11.3 976.2 12.2L1000 13L1000 0L976.2 0C952.3 0 904.7 0 857 0C809.3 0 761.7 0 714 0C666.3 0 618.7 0 571.2 0C523.7 0 476.3 0 428.8 0C381.3 0 333.7 0 286 0C238.3 0 190.7 0 143 0C95.3 0 47.7 0 23.8 0L0 0Z" fill="#890900"></path></svg>